<svg xmlns="http://www.w3.org/2000/svg" viewBox="140 10 200 220" width="420" height="400"><linearGradient id="a" x1=".233" y1="0" x2=".589" y2=".533"><stop offset="0%" stop-color="#ffe873"/><stop offset="100%" stop-color="#ffd43b"/></linearGradient><linearGradient id="b" x1=".233" y1="0" x2=".589" y2=".533"><stop offset="0%" stop-color="#5a9fd4"/><stop offset="100%" stop-color="#306998"/></linearGradient><path fill="url(#a)" d="M263.407 146.816c-.437.075-.886.13-1.356.15-2.458.076-4.253-.587-5.823-2.152l-8.892-8.859-11.235-11.198-36.04-35.92c-3.437-3.422-7.333-5.347-11.59-5.723a17.738 17.738 0 0 0-6.64.676c-3.243.944-6.136 2.664-8.594 5.116-3.835 3.82-5.864 8.415-5.876 13.288-.061 4.953 1.951 9.6 5.808 13.444l55.623 55.436c1.822 1.842 2.66 3.796 2.633 6.146l.004.208c.053 2.432-.76 4.346-2.626 6.206-1.78 1.776-3.81 2.653-6.31 2.756-2.458.076-4.254-.589-5.825-2.153l-56.165-55.975c-5.215-5.195-11.703-6.988-18.23-5.049-3.246.943-6.136 2.663-8.596 5.115-3.834 3.82-5.865 8.416-5.876 13.29-.056 4.952 1.952 9.602 5.807 13.447l58.106 57.906c8.32 8.291 19.34 11.937 32.744 10.838 12.58-1.02 23.023-5.585 31.034-13.573 7.513-7.486 11.964-16.352 13.287-26.426 10.472-1.682 19.295-6.045 26.275-13.001 4.014-4 7.15-8.398 9.406-13.162-14.156-.399-28.237-4.01-41.053-10.83z"/><path fill="url(#b)" d="M308.76 138.119c.103-12.846-4.43-23.986-13.506-33.135l-35.881-35.759c-.244-.24-.465-.488-.687-.745-1.484-1.739-2.188-3.583-2.21-5.807-.026-2.47.85-4.508 2.76-6.407 1.915-1.91 3.854-2.738 6.366-2.685 2.537.024 4.627.943 6.573 2.882l60.591 60.385 12.115-12.07c1.122-.907 1.957-1.768 2.878-2.934 5.919-7.515 5.27-18.272-1.51-25.029l-47.244-47.088C289.81 20.57 278.638 15.951 265.837 16c-12.943-.05-24.142 4.549-33.288 13.663-9.029 8.997-13.64 19.94-13.7 32.488l-.005.142c-.002.168-.005.337-.005.507-.09 12.232 4.108 22.958 12.482 31.881.402.43.803.858 1.223 1.278l35.75 35.626c1.89 1.882 2.718 3.797 2.694 6.21l.003.21c.053 2.432-.76 4.345-2.627 6.208-1.448 1.439-3.063 2.278-4.957 2.602 12.816 6.822 26.897 10.432 41.053 10.834 2.806-5.925 4.25-12.419 4.299-19.435z"/><path fill="#fff" d="M327.48 85.182a7.307 7.307 0 0 1 10.31 0 7.245 7.245 0 0 1-.002 10.27c-2.844 2.839-7.463 2.839-10.307 0a7.244 7.244 0 0 1 0-10.27z"/></svg>